# xmcd
#
# Track frame offsets:
#	150
#	14938
#	31111
#	46206
#	62562
#	80701
#
# Disc length: 1268 seconds
#
# Revision: 1
# Processed by: cddbd v1.5.2PL0 Copyright (c) Steve Scherf et al.
# Submitted via: EZCDAudioConverter 5.0.0.1
#
DISCID=4804f206
DTITLE=Lacy Green - Nice Things
DYEAR=2015
DGENRE=Country
TTITLE0=Nice Things
TTITLE1=Lock The Door
TTITLE2=Marionette
TTITLE3=I Got It All
TTITLE4=Trainwreck
TTITLE5=Winnebago
EXTD=
EXTT0=
EXTT1=
EXTT2=
EXTT3=
EXTT4=
EXTT5=
PLAYORDER=
